<?xml version="1.0" encoding="utf-8"?>
<svg xmlns="http://www.w3.org/2000/svg" viewBox="0 0 128 128" xmlns:bx="https://boxy-svg.com">
  <defs>
    <linearGradient gradientUnits="userSpaceOnUse" x1="64" y1="8" x2="64" y2="120" id="gradient-1">
      <stop offset="0" style="stop-color: rgb(181, 237, 194);"/>
      <stop offset="1" style="stop-color: rgb(0, 128, 128);"/>
    </linearGradient>
  </defs>
  <ellipse style="paint-order: fill; fill: url(&quot;#gradient-1&quot;); stroke-width: 2px; stroke: rgb(112, 112, 112);" cx="64" cy="64" rx="48" ry="48"/>
  <path style="fill: rgb(112, 112, 112);" transform="matrix(0.231155, 0, 0, 0.231155, -67.444344, -47.238506)" d="M 532.327140369 251.946 L 604.956859631 251.946 L 596.919470369 363.444859172 A 121.131 121.131 0 0 1 631.932773643 377.947844252 L 705.091080608 293.422952386 L 756.448047614 344.779919392 L 671.923155748 417.938226357 A 121.131 121.131 0 0 1 686.426140828 452.951529631 L 797.925 444.914140369 L 797.925 517.543859631 L 686.426140828 509.506470369 A 121.131 121.131 0 0 1 671.923155748 544.519773643 L 756.448047614 617.678080608 L 705.091080608 669.035047614 L 631.932773643 584.510155748 A 121.131 121.131 0 0 1 596.919470369 599.013140828 L 604.956859631 710.512 L 532.327140369 710.512 L 540.364529631 599.013140828 A 121.131 121.131 0 0 1 505.351226357 584.510155748 L 432.192919392 669.035047614 L 380.835952386 617.678080608 L 465.360844252 544.519773643 A 121.131 121.131 0 0 1 450.857859172 509.506470369 L 339.359 517.543859631 L 339.359 444.914140369 L 450.857859172 452.951529631 A 121.131 121.131 0 0 1 465.360844252 417.938226357 L 380.835952386 344.779919392 L 432.192919392 293.422952386 L 505.351226357 377.947844252 A 121.131 121.131 0 0 1 540.364529631 363.444859172 Z M 568.642 373.076 A 108.153 108.153 0 0 0 568.642 589.382 A 108.153 108.153 0 0 0 568.642 373.076" bx:shape="cog 568.642 481.229 108.153 121.131 229.283 0.2 8 1@83de7c48"/>
  <path d="M 62.885 -4.198 L 72.431 53.756 L 130.385 63.302 L 72.431 72.848 L 62.885 130.802 L 53.339 72.848 L -4.615 63.302 L 53.339 53.756 Z" bx:shape="star 62.885 63.302 67.5 67.5 0.2 4 1@7ad7056d" style="stroke-width: 2px; transform-box: fill-box; transform-origin: 50% 50%; fill: rgb(255, 255, 255); stroke: rgb(160, 160, 160);" transform="matrix(0.707107, 0.707107, -0.707107, 0.707107, 0.574445, 0.15745)"/>
  <path style="fill: rgb(239, 239, 239);" d="M 64.491 64.966 C 72.392 74.685 79.994 78.507 86.931 78.818 L 107.518 107.672 L 63.377 75.852 L 19.238 107.672 L 50.893 63.303 L 39.9 47.894 C 47.129 49.071 55.443 53.834 64.491 64.966 Z"/>
</svg>